<svg xmlns="http://www.w3.org/2000/svg" viewBox="0 0 100 100" width="100" height="100"><path fill="#c7ede6" d="M88.346,56.672c0.3-0.616,0.566-1.264,0.796-1.943c2.633-7.77-1.349-17.078-9.733-19.325c-0.906-11.384-8.906-19.193-17.941-20.526c-10.341-1.525-19.814,5.044-22.966,15.485c-3.799-1.346-7.501-1.182-10.99,0.857c-1.583,0.732-3.031,1.812-4.33,3.233c-1.907,2.086-3.147,4.719-3.652,7.495c-0.748,0.118-1.483,0.236-2.176,0.484c-4.04,1.449-6.589,4.431-7.288,8.923c-0.435,2.797,0.443,5.587,0.933,6.714c1.935,4.455,6.422,6.98,10.981,6.312c0.227-0.033,0.557,0.069,0.752,0.233c0.241,7.12,3.698,13.417,8.884,17.014c8.321,5.772,19.027,3.994,25.781-3.921c2.894,2.96,6.338,4.398,10.384,3.876c4.023-0.519,7.147-2.739,9.426-6.349c1.053,0.283,2.051,0.691,3.083,0.804c4.042,0.442,7.324-1.165,9.732-4.8c0.922-1.391,1.794-3.194,1.794-6.354C91.816,61.629,90.522,58.662,88.346,56.672z"/><path fill="#fff" d="M18.011 48.708H7.98c-.276 0-.5-.224-.5-.5s.224-.5.5-.5h10.031c.276 0 .5.224.5.5S18.287 48.708 18.011 48.708zM20.892 48.708h-1.446c-.276 0-.5-.224-.5-.5s.224-.5.5-.5h1.446c.276 0 .5.224.5.5S21.168 48.708 20.892 48.708zM24.946 48.708H22.4c-.276 0-.5-.224-.5-.5s.224-.5.5-.5h2.546c.276 0 .5.224.5.5S25.223 48.708 24.946 48.708zM24.946 50.573H15.33c-.276 0-.5-.224-.5-.5s.224-.5.5-.5h9.616c.276 0 .5.224.5.5S25.223 50.573 24.946 50.573zM13.598 50.573h-.58c-.276 0-.5-.224-.5-.5s.224-.5.5-.5h.58c.276 0 .5.224.5.5S13.874 50.573 13.598 50.573zM11.222 50.573H9.765c-.276 0-.5-.224-.5-.5s.224-.5.5-.5h1.457c.276 0 .5.224.5.5S11.498 50.573 11.222 50.573zM20.357 46.843H15.33c-.276 0-.5-.224-.5-.5s.224-.5.5-.5h5.027c.276 0 .5.224.5.5S20.634 46.843 20.357 46.843zM20.357 44.978H19.1c-.276 0-.5-.224-.5-.5s.224-.5.5-.5h1.257c.276 0 .5.224.5.5S20.634 44.978 20.357 44.978zM17.088 52.438H15.33c-.276 0-.5-.224-.5-.5s.224-.5.5-.5h1.758c.276 0 .5.224.5.5S17.365 52.438 17.088 52.438zM74.037 26.387H64.006c-.276 0-.5-.224-.5-.5s.224-.5.5-.5h10.031c.276 0 .5.224.5.5S74.313 26.387 74.037 26.387zM76.917 26.387h-1.446c-.276 0-.5-.224-.5-.5s.224-.5.5-.5h1.446c.276 0 .5.224.5.5S77.194 26.387 76.917 26.387zM80.972 26.387h-2.546c-.276 0-.5-.224-.5-.5s.224-.5.5-.5h2.546c.276 0 .5.224.5.5S81.248 26.387 80.972 26.387zM80.972 28.252h-9.616c-.276 0-.5-.224-.5-.5s.224-.5.5-.5h9.616c.276 0 .5.224.5.5S81.248 28.252 80.972 28.252zM69.624 28.252h-.58c-.276 0-.5-.224-.5-.5s.224-.5.5-.5h.58c.276 0 .5.224.5.5S69.901 28.252 69.624 28.252zM67.247 28.252h-1.457c-.276 0-.5-.224-.5-.5s.224-.5.5-.5h1.457c.276 0 .5.224.5.5S67.524 28.252 67.247 28.252zM76.383 24.523h-5.027c-.276 0-.5-.224-.5-.5s.224-.5.5-.5h5.027c.276 0 .5.224.5.5S76.66 24.523 76.383 24.523zM76.383 22.658h-1.257c-.276 0-.5-.224-.5-.5s.224-.5.5-.5h1.257c.276 0 .5.224.5.5S76.66 22.658 76.383 22.658zM73.115 30.117h-1.759c-.276 0-.5-.224-.5-.5s.224-.5.5-.5h1.759c.276 0 .5.224.5.5S73.391 30.117 73.115 30.117z"/><path fill="#fdfcef" d="M72.705,54.381c0,0,10.616,0,10.681,0c2.452,0,4.439-1.987,4.439-4.439c0-2.139-1.513-3.924-3.527-4.344c0.023-0.187,0.039-0.377,0.039-0.57c0-2.539-2.058-4.598-4.597-4.598c-1.499,0-2.827,0.721-3.666,1.831c-0.215-2.826-2.739-5.007-5.693-4.646c-2.16,0.264-3.947,1.934-4.344,4.073c-0.127,0.686-0.114,1.352,0.013,1.977c-0.579-0.624-1.403-1.016-2.322-1.016c-1.68,0-3.052,1.308-3.16,2.961c-0.763-0.169-1.593-0.158-2.467,0.17c-1.671,0.627-2.861,2.2-2.93,3.983c-0.099,2.533,1.925,4.617,4.435,4.617c0.191,0,0.861,0,1.015,0h9.218"/><path fill="#472b29" d="M83.386,54.881H72.705c-0.276,0-0.5-0.224-0.5-0.5s0.224-0.5,0.5-0.5h10.681c2.172,0,3.939-1.768,3.939-3.939c0-1.855-1.316-3.477-3.129-3.855c-0.255-0.053-0.427-0.293-0.394-0.552c0.021-0.166,0.035-0.336,0.035-0.508c0-2.26-1.838-4.098-4.097-4.098c-1.292,0-2.483,0.595-3.267,1.633c-0.125,0.166-0.339,0.238-0.54,0.178c-0.199-0.059-0.342-0.234-0.357-0.441c-0.094-1.238-0.7-2.401-1.663-3.19c-0.973-0.797-2.204-1.149-3.471-0.997c-1.947,0.239-3.556,1.747-3.913,3.669c-0.112,0.6-0.108,1.201,0.011,1.786c0.044,0.22-0.062,0.442-0.262,0.545c-0.199,0.103-0.442,0.059-0.595-0.105c-0.512-0.553-1.206-0.856-1.955-0.856c-1.4,0-2.569,1.096-2.661,2.494c-0.01,0.145-0.082,0.279-0.199,0.366c-0.116,0.088-0.264,0.121-0.408,0.089c-0.757-0.168-1.471-0.116-2.184,0.15c-1.499,0.562-2.546,1.983-2.606,3.535c-0.042,1.083,0.347,2.109,1.097,2.889s1.758,1.209,2.839,1.209h10.233c0.276,0,0.5,0.224,0.5,0.5s-0.224,0.5-0.5,0.5H59.606c-1.355,0-2.62-0.538-3.56-1.516c-0.939-0.978-1.428-2.264-1.375-3.621c0.076-1.949,1.383-3.73,3.254-4.432c0.72-0.271,1.464-0.367,2.22-0.279c0.362-1.655,1.842-2.885,3.583-2.885c0.603,0,1.194,0.151,1.72,0.432c0.004-0.327,0.036-0.656,0.097-0.983c0.436-2.346,2.399-4.188,4.774-4.479c1.538-0.19,3.04,0.243,4.227,1.216c0.899,0.737,1.543,1.742,1.846,2.851c0.919-0.808,2.095-1.256,3.347-1.256c2.811,0,5.097,2.287,5.097,5.098c0,0.064-0.001,0.128-0.004,0.192c2.048,0.628,3.492,2.547,3.492,4.723C88.325,52.665,86.109,54.881,83.386,54.881z"/><path fill="#fdfcef" d="M70.133,44.602c-1.642-0.108-3.055,1.026-3.157,2.533c-0.013,0.187-0.004,0.371,0.023,0.55c-0.317-0.358-0.786-0.6-1.324-0.636c-0.985-0.065-1.836,0.586-1.959,1.471c-0.179-0.049-0.366-0.082-0.56-0.095c-1.437-0.094-2.674,0.898-2.762,2.216"/><path fill="#472b29" d="M60.394,50.892c-0.006,0-0.012,0-0.017-0.001c-0.138-0.009-0.242-0.128-0.233-0.266c0.098-1.454,1.453-2.579,3.028-2.449c0.116,0.007,0.234,0.022,0.354,0.045c0.26-0.878,1.168-1.505,2.166-1.421c0.377,0.024,0.73,0.139,1.035,0.329c0-0.004,0-0.007,0-0.011c0.11-1.642,1.663-2.886,3.422-2.766c0.138,0.009,0.242,0.128,0.233,0.266c-0.009,0.137-0.136,0.246-0.266,0.232c-1.515-0.104-2.8,0.934-2.891,2.301c-0.011,0.166-0.004,0.333,0.021,0.495c0.017,0.109-0.041,0.218-0.141,0.265c-0.098,0.047-0.219,0.022-0.293-0.061c-0.289-0.325-0.698-0.521-1.153-0.553c-0.849-0.04-1.589,0.497-1.695,1.257c-0.01,0.071-0.05,0.135-0.11,0.175c-0.06,0.039-0.133,0.051-0.204,0.032c-0.173-0.047-0.345-0.076-0.51-0.088c-1.295-0.068-2.417,0.806-2.497,1.984C60.635,50.79,60.525,50.892,60.394,50.892z"/><path fill="#fdfcef" d="M85.183,46.118c-1.543-0.727-3.327-0.213-3.985,1.15c-0.082,0.169-0.142,0.344-0.182,0.521"/><path fill="#472b29" d="M81.016,48.039c-0.018,0-0.037-0.002-0.055-0.006c-0.135-0.031-0.219-0.165-0.188-0.3c0.044-0.197,0.112-0.39,0.201-0.573c0.717-1.484,2.655-2.053,4.317-1.269c0.125,0.06,0.179,0.208,0.12,0.333c-0.059,0.126-0.21,0.177-0.333,0.12c-1.417-0.67-3.056-0.205-3.654,1.032c-0.072,0.149-0.127,0.307-0.164,0.468C81.233,47.959,81.13,48.039,81.016,48.039z"/><path fill="#e1e0d8" d="M67.13,32.937c0.049,0.207,0.054,19.131,0.054,28.285c-0.234,0.119-8.182,4.731-11.905,6.944c-0.496,0.295-0.837,0.321-1.35,0.014c-3.757-2.247-7.542-4.453-11.304-6.692c-0.413-0.246-0.692-0.247-1.107-0.001c-3.993,2.369-8.001,4.715-12.005,7.068c0-9.361,0-18.721,0-28.082c4.169-2.444,8.339-4.888,12.508-7.332c0.049,0,0.098,0,0.147,0c0.05,0.048,8.09,4.805,12.047,7.153c0.372,0.221,0.61,0.114,0.918-0.068C58.953,37.973,66.985,33.052,67.13,32.937z"/><path fill="#472b29" d="M29.513,69.154c-0.103,0-0.206-0.026-0.298-0.079c-0.187-0.106-0.302-0.306-0.302-0.521V40.472c0-0.213,0.113-0.41,0.297-0.518l12.508-7.332c0.092-0.054,0.197-0.082,0.303-0.082h0.147c0.153,0,0.3,0.058,0.412,0.163c0.134,0.074,4.12,2.437,7.636,4.521l4.306,2.553c0.105,0.035,0.159,0.016,0.307-0.069c3.769-2.223,11.621-7.032,11.953-7.259c0.164-0.111,0.377-0.138,0.559-0.067c0.184,0.07,0.327,0.225,0.373,0.416c0.03,0.125,0.071,0.295,0.071,28.424c0,0.226-0.127,0.433-0.328,0.535c-0.292,0.154-8.033,4.644-11.87,6.924c-0.708,0.421-1.277,0.425-1.965,0.013c-2.047-1.224-4.102-2.436-6.157-3.647c-1.717-1.013-3.434-2.024-5.146-3.044c-0.224-0.135-0.271-0.134-0.493-0.001c-3.023,1.794-6.054,3.573-9.085,5.354l-2.922,1.717C29.724,69.126,29.618,69.154,29.513,69.154z M42.071,60.702c0.28,0,0.56,0.09,0.861,0.27c1.71,1.019,3.425,2.03,5.141,3.041c2.058,1.214,4.115,2.427,6.164,3.652c0.304,0.182,0.406,0.181,0.736-0.015c3.202-1.903,10.021-5.869,11.611-6.777c0-18.07-0.019-24.646-0.036-26.862c-2.344,1.45-8.378,5.121-11.11,6.731c-0.288,0.171-0.825,0.484-1.529,0.067l-4.305-2.552c-5.206-3.085-6.923-4.104-7.513-4.463l-11.978,7.021v26.69l2.019-1.187c3.03-1.779,6.059-3.558,9.08-5.35C41.513,60.79,41.792,60.702,42.071,60.702z"/><path fill="#cbc9bc" d="M54.5 67.906L54.5 41.034 42.197 33.921 42.197 60.793z"/><path fill="#e1e0d8" d="M54.732 68.149L54.732 40.627"/><path fill="#472b29" d="M54.732,68.399c-0.138,0-0.25-0.112-0.25-0.25V40.627c0-0.138,0.112-0.25,0.25-0.25s0.25,0.112,0.25,0.25v27.521C54.982,68.287,54.871,68.399,54.732,68.399z"/><path fill="#e1e0d8" d="M41.986 60.989L41.986 33.467"/><path fill="#472b29" d="M41.986,61.239c-0.138,0-0.25-0.112-0.25-0.25V33.467c0-0.138,0.112-0.25,0.25-0.25s0.25,0.112,0.25,0.25v27.521C42.236,61.126,42.124,61.239,41.986,61.239z"/><path fill="#e1e0d8" d="M36.391 51.494L33.233 54.652"/><path fill="#ee3e54" d="M33.233,55.152c-0.128,0-0.256-0.049-0.354-0.146c-0.195-0.195-0.195-0.512,0-0.707l3.158-3.158c0.195-0.195,0.512-0.195,0.707,0s0.195,0.512,0,0.707l-3.158,3.158C33.489,55.103,33.361,55.152,33.233,55.152z"/><path fill="#e1e0d8" d="M33.233 51.494L36.391 54.652"/><path fill="#ee3e54" d="M36.391,55.152c-0.128,0-0.256-0.049-0.354-0.146l-3.158-3.158c-0.195-0.195-0.195-0.512,0-0.707s0.512-0.195,0.707,0l3.158,3.158c0.195,0.195,0.195,0.512,0,0.707C36.647,55.103,36.519,55.152,36.391,55.152z"/><path fill="#472b29" d="M48.018,53.148c-0.191,0-0.347-0.152-0.35-0.344c-0.003-0.193,0.151-0.353,0.345-0.355l0.165-0.007c0.246-0.014,0.492-0.055,0.734-0.122c0.19-0.05,0.379,0.058,0.431,0.243c0.052,0.187-0.057,0.379-0.244,0.431c-0.29,0.081-0.585,0.131-0.879,0.147C48.156,53.145,48.121,53.154,48.018,53.148z M46.531,52.979c-0.025,0-0.05-0.002-0.075-0.008l-0.128-0.026c-0.145-0.033-0.367-0.119-0.878-0.518c-0.153-0.119-0.18-0.339-0.062-0.491c0.119-0.153,0.338-0.182,0.491-0.062c0.441,0.344,0.579,0.382,0.593,0.385l0.132,0.028c0.189,0.041,0.309,0.228,0.268,0.416C46.837,52.868,46.692,52.979,46.531,52.979z M50.345,52.351c-0.107,0-0.212-0.048-0.281-0.14c-0.116-0.155-0.084-0.375,0.071-0.49c0.246-0.184,0.464-0.396,0.648-0.632c0.12-0.152,0.339-0.18,0.491-0.06c0.152,0.119,0.179,0.339,0.06,0.491c-0.223,0.284-0.485,0.54-0.78,0.761C50.491,52.329,50.418,52.351,50.345,52.351z M44.524,51.524c-0.084,0-0.168-0.029-0.236-0.091c-0.24-0.219-0.489-0.451-0.738-0.686c-0.141-0.133-0.147-0.354-0.015-0.495c0.133-0.142,0.354-0.146,0.495-0.015c0.246,0.232,0.492,0.461,0.729,0.678c0.143,0.13,0.154,0.352,0.023,0.494C44.714,51.486,44.619,51.524,44.524,51.524z M51.716,50.318c-0.029,0-0.059-0.003-0.088-0.011c-0.187-0.048-0.3-0.239-0.251-0.427c0.073-0.281,0.109-0.57,0.109-0.857c0-0.193,0.157-0.372,0.35-0.372s0.35,0.134,0.35,0.327v0.045c0,0.347-0.044,0.694-0.132,1.033C52.014,50.213,51.872,50.318,51.716,50.318z M34.814,50.111c-0.185,0-0.339-0.145-0.349-0.331l-0.003-0.127c0-0.097,0.006-0.194,0.017-0.29c0.021-0.192,0.198-0.335,0.387-0.309c0.192,0.021,0.33,0.194,0.309,0.387c-0.008,0.07-0.012,0.141-0.012,0.212l0.002,0.09c0.01,0.192-0.138,0.357-0.331,0.368C34.827,50.111,34.82,50.111,34.814,50.111z M42.707,49.799c-0.088,0-0.177-0.033-0.245-0.1l-0.716-0.703c-0.138-0.135-0.14-0.356-0.004-0.494c0.135-0.14,0.356-0.141,0.495-0.004l0.714,0.701c0.138,0.135,0.141,0.356,0.006,0.494C42.889,49.764,42.798,49.799,42.707,49.799z M35.414,48.393c-0.079,0-0.158-0.026-0.224-0.08c-0.148-0.124-0.169-0.344-0.046-0.493c0.078-0.093,0.16-0.183,0.248-0.266c0.179-0.172,0.38-0.325,0.598-0.457c0.166-0.101,0.381-0.047,0.481,0.119c0.1,0.165,0.046,0.38-0.119,0.48c-0.174,0.104-0.334,0.227-0.476,0.363c-0.068,0.065-0.132,0.134-0.192,0.207C35.615,48.35,35.515,48.393,35.414,48.393z M40.889,48.082c-0.071,0-0.143-0.021-0.205-0.066c-0.248-0.18-0.517-0.334-0.801-0.457c-0.177-0.077-0.258-0.284-0.181-0.461c0.077-0.178,0.284-0.258,0.46-0.182c0.33,0.145,0.644,0.323,0.933,0.533c0.157,0.113,0.191,0.333,0.078,0.489C41.104,48.033,40.997,48.082,40.889,48.082z M51.503,47.877c-0.13,0-0.254-0.072-0.315-0.196c-0.129-0.265-0.3-0.509-0.51-0.726c-0.134-0.139-0.13-0.36,0.009-0.495c0.139-0.134,0.36-0.131,0.495,0.009c0.261,0.271,0.475,0.575,0.635,0.905c0.085,0.174,0.013,0.384-0.161,0.468C51.607,47.867,51.555,47.877,51.503,47.877z M37.576,47.253c-0.17,0-0.32-0.124-0.346-0.298c-0.029-0.191,0.103-0.369,0.294-0.397c0.358-0.056,0.724-0.063,1.078-0.034c0.193,0.016,0.336,0.184,0.321,0.377c-0.016,0.192-0.188,0.341-0.377,0.32c-0.303-0.024-0.612-0.018-0.918,0.028C37.611,47.252,37.593,47.253,37.576,47.253z M49.681,46.257c-0.038,0-0.077-0.006-0.115-0.02c-0.268-0.093-0.541-0.141-0.81-0.141c-0.193,0-0.378-0.156-0.378-0.35s0.128-0.35,0.322-0.35h0.057c0.348,0,0.697,0.06,1.04,0.18c0.183,0.063,0.279,0.263,0.215,0.445C49.961,46.167,49.826,46.257,49.681,46.257z"/><path fill="#fdfcef" d="M42.651,70.759c1.71,0,3.194,0,3.215,0c1.916,0,3.469-1.52,3.469-3.396c0-1.636-1.182-3.001-2.756-3.323c0.018-0.143,0.031-0.288,0.031-0.436c0-1.942-1.609-3.517-3.593-3.517c-1.172,0-2.209,0.551-2.865,1.401c-0.168-2.162-2.141-3.83-4.45-3.554c-1.688,0.202-3.084,1.479-3.395,3.116c-0.1,0.525-0.089,1.034,0.01,1.512c-0.453-0.477-1.097-0.777-1.814-0.777c-1.313,0-2.385,1.001-2.47,2.265c-0.596-0.129-1.245-0.121-1.928,0.13c-1.306,0.48-2.236,1.683-2.29,3.047c-0.077,1.937,1.504,3.532,3.467,3.532c0.149,0,0.673,0,0.794,0h7.204 M36.769,70.759h0.327"/><path fill="#472b29" d="M45.866,71.259h-3.214c-0.276,0-0.5-0.224-0.5-0.5s0.224-0.5,0.5-0.5h3.214c1.638,0,2.97-1.299,2.97-2.896c0-1.362-0.991-2.554-2.356-2.833c-0.256-0.053-0.429-0.294-0.396-0.553c0.016-0.122,0.026-0.247,0.026-0.373c0-1.664-1.388-3.018-3.093-3.018c-0.977,0-1.877,0.44-2.47,1.207c-0.126,0.164-0.341,0.23-0.539,0.174c-0.198-0.06-0.339-0.234-0.355-0.44c-0.071-0.913-0.506-1.741-1.227-2.332c-0.742-0.61-1.687-0.879-2.665-0.765c-1.476,0.177-2.694,1.292-2.963,2.712c-0.084,0.443-0.081,0.887,0.008,1.318c0.045,0.219-0.06,0.441-0.258,0.545c-0.197,0.103-0.441,0.063-0.594-0.1c-0.38-0.4-0.896-0.621-1.452-0.621c-1.038,0-1.903,0.79-1.971,1.798c-0.01,0.146-0.082,0.278-0.198,0.366c-0.116,0.087-0.265,0.121-0.406,0.089c-0.571-0.122-1.111-0.086-1.65,0.112c-1.129,0.414-1.917,1.458-1.963,2.597c-0.031,0.782,0.253,1.526,0.8,2.096c0.568,0.591,1.337,0.916,2.167,0.916h7.998c0.276,0,0.5,0.224,0.5,0.5s-0.224,0.5-0.5,0.5H27.28c-1.088,0-2.141-0.445-2.888-1.223c-0.737-0.768-1.12-1.771-1.078-2.828c0.061-1.539,1.113-2.944,2.617-3.497c0.549-0.201,1.114-0.279,1.688-0.229c0.331-1.268,1.506-2.197,2.882-2.197c0.431,0,0.854,0.094,1.241,0.269c0.01-0.199,0.035-0.398,0.072-0.597c0.35-1.844,1.923-3.291,3.827-3.519c1.25-0.155,2.463,0.199,3.418,0.983c0.668,0.548,1.147,1.255,1.399,2.048c0.718-0.569,1.61-0.883,2.557-0.883c2.257,0,4.093,1.803,4.093,4.018c0,0.02,0,0.039,0,0.059c1.604,0.521,2.727,2.013,2.727,3.7C49.835,69.512,48.055,71.259,45.866,71.259z M37.096,71.259h-0.326c-0.276,0-0.5-0.224-0.5-0.5s0.224-0.5,0.5-0.5h0.326c0.276,0,0.5,0.224,0.5,0.5S37.372,71.259,37.096,71.259z"/><path fill="#472b29" d="M44.315 65.967c-.018 0-.036-.002-.054-.006-.135-.03-.22-.164-.19-.299.034-.15.086-.299.156-.44.554-1.121 2.083-1.538 3.41-.925.125.058.18.206.122.331-.059.126-.206.18-.332.122-1.082-.498-2.315-.189-2.751.692-.052.105-.091.216-.116.329C44.534 65.888 44.43 65.967 44.315 65.967zM39.631 71.259h-1.005c-.276 0-.5-.224-.5-.5s.224-.5.5-.5h1.005c.276 0 .5.224.5.5S39.907 71.259 39.631 71.259z"/><path fill="#78a0cf" d="M63.219,72.255c-5.999-3.026-8.442-10.335-5.455-16.327s10.27-8.396,16.269-5.37c5.999,3.026,8.442,10.335,5.455,16.327S69.218,75.28,63.219,72.255z"/><path fill="#472b29" d="M68.683,74.066c-1.951,0-3.891-0.458-5.689-1.365c-6.234-3.144-8.782-10.769-5.678-16.995c1.5-3.011,4.083-5.252,7.273-6.312c3.206-1.065,6.64-0.81,9.668,0.718c6.235,3.145,8.782,10.769,5.678,16.995c-1.5,3.011-4.083,5.252-7.273,6.312C71.359,73.851,70.018,74.066,68.683,74.066z M68.567,49.748c-1.229,0-2.463,0.197-3.663,0.596c-2.936,0.976-5.313,3.038-6.694,5.808c-2.858,5.736-0.511,12.76,5.233,15.657c2.789,1.406,5.95,1.642,8.903,0.661c2.936-0.976,5.313-3.038,6.694-5.808c2.859-5.736,0.511-12.76-5.233-15.657C72.151,50.169,70.364,49.748,68.567,49.748z"/><path fill="#467daa" d="M74.68,50.995l-1.22-0.611c-0.424-0.212-0.597-0.733-0.384-1.157l0.053-0.106c0.212-0.424,0.733-0.597,1.157-0.384l1.22,0.611c0.424,0.212,0.597,0.733,0.384,1.157l-0.053,0.106C75.625,51.034,75.104,51.207,74.68,50.995z"/><path fill="#472b29" d="M75.063,51.461c-0.189,0-0.377-0.044-0.551-0.132l-1.219-0.611c-0.61-0.306-0.857-1.051-0.552-1.66l0.054-0.106c0.147-0.294,0.402-0.514,0.716-0.617c0.315-0.104,0.649-0.081,0.944,0.067l1.219,0.611c0.294,0.146,0.514,0.401,0.619,0.716c0.104,0.313,0.081,0.648-0.067,0.943l-0.053,0.105c-0.148,0.295-0.402,0.515-0.716,0.619C75.328,51.44,75.195,51.461,75.063,51.461z M73.902,49.021c-0.052,0-0.104,0.008-0.155,0.024c-0.124,0.042-0.224,0.128-0.282,0.243l-0.054,0.106c-0.12,0.239-0.022,0.532,0.218,0.653l1.219,0.611h0c0.114,0.059,0.247,0.068,0.371,0.025c0.124-0.041,0.225-0.128,0.282-0.243l0.053-0.105c0.058-0.115,0.067-0.247,0.026-0.371c-0.041-0.124-0.127-0.225-0.242-0.282l-1.22-0.611C74.05,49.038,73.976,49.021,73.902,49.021z"/><path fill="#fdfcee" d="M68.799 50.94500000000001A10.258 10.258 0 1 0 68.799 71.461A10.258 10.258 0 1 0 68.799 50.94500000000001Z"/><path fill="#472b29" d="M76.047,50.569c-0.183,0-0.342-0.134-0.371-0.319c-0.03-0.205,0.111-0.396,0.315-0.427c0.743-0.111,1.387-0.578,1.723-1.249c0.571-1.139,0.109-2.529-1.029-3.101c-1.139-0.57-2.529-0.107-3.1,1.03c-0.36,0.718-0.35,1.473,0.027,2.124c0.104,0.18,0.043,0.409-0.136,0.513c-0.18,0.104-0.409,0.041-0.512-0.136c-0.509-0.878-0.526-1.886-0.05-2.837c0.757-1.508,2.6-2.119,4.107-1.364c1.508,0.757,2.12,2.599,1.364,4.106c-0.446,0.889-1.299,1.508-2.282,1.655C76.084,50.568,76.065,50.569,76.047,50.569z"/><path fill="#cdcbbd" d="M73.968,62.75c0.145,0.003,0.274-0.023,0.315-0.187c0.04-0.161-0.028-0.275-0.175-0.345c-0.034-0.016-0.066-0.035-0.099-0.051c-0.994-0.492-1.988-0.984-3.001-1.486c0.064-0.066,0.113-0.12,0.165-0.171c0.397-0.384,0.792-0.771,1.194-1.15c0.124-0.117,0.187-0.223,0.084-0.387c-0.098-0.155-0.22-0.144-0.369-0.093c-0.522,0.18-1.047,0.354-1.571,0.529c-0.065,0.022-0.132,0.038-0.216,0.062c0.022-1.17,0.044-2.302,0.066-3.434c0.003-0.145-0.024-0.274-0.185-0.318c-0.173-0.047-0.26,0.058-0.329,0.197c-0.338,0.689-1.638,4.067-1.638,4.067s-3.711-0.173-4.545-0.189c-0.157-0.003-0.309,0.004-0.352,0.195c-0.04,0.177,0.074,0.258,0.214,0.318c0.034,0.015,0.066,0.035,0.099,0.051c1,0.496,2,0.992,3.017,1.495c-0.055,0.061-0.097,0.111-0.144,0.157c-0.413,0.4-0.825,0.801-1.241,1.198c-0.103,0.098-0.198,0.193-0.112,0.346c0.094,0.167,0.233,0.118,0.373,0.071c0.593-0.2,1.188-0.398,1.803-0.605c0.003,0.076,0.008,0.134,0.007,0.191c-0.019,1.088-0.038,2.176-0.059,3.264c-0.003,0.153,0.018,0.29,0.194,0.331c0.175,0.041,0.257-0.07,0.323-0.208c0.184-0.383,1.657-3.751,1.657-3.751S73.417,62.739,73.968,62.75z"/><path fill="#472b29" d="M67.646,66.967c-0.033,0-0.068-0.004-0.106-0.013c-0.317-0.076-0.312-0.37-0.31-0.48c0.021-1.083,0.04-2.165,0.059-3.247l-0.517,0.174c-0.369,0.123-0.732,0.244-1.095,0.367c-0.143,0.049-0.398,0.134-0.552-0.14c-0.145-0.256,0.04-0.433,0.139-0.527c0.336-0.321,0.67-0.645,1.004-0.969l0.235-0.229c0.001-0.001,0.002-0.002,0.003-0.003l-2.885-1.432c-0.015-0.008-0.03-0.017-0.045-0.023c-0.25-0.107-0.351-0.272-0.302-0.489c0.073-0.32,0.363-0.311,0.501-0.312c0.829,0.017,1.659,0.031,2.488,0.046l0.008,0.15L66.26,59.99c-0.83-0.015-1.659-0.029-2.489-0.045c-0.175-0.019-0.19,0.022-0.203,0.078c-0.011,0.049-0.019,0.084,0.127,0.147c0.024,0.011,0.048,0.023,0.072,0.036l0.035,0.019l3.017,1.495c0.042,0.021,0.072,0.061,0.081,0.107c0.009,0.046-0.005,0.094-0.037,0.128l-0.048,0.055c-0.036,0.04-0.067,0.075-0.102,0.108l-0.235,0.229c-0.335,0.325-0.669,0.649-1.006,0.971c-0.115,0.11-0.108,0.121-0.085,0.163c0.027,0.047,0.031,0.057,0.19,0.005c0.368-0.125,0.732-0.246,1.101-0.37l0.708-0.237c0.045-0.014,0.094-0.008,0.133,0.02c0.039,0.026,0.062,0.07,0.064,0.117l0.003,0.07c0.002,0.047,0.004,0.088,0.003,0.13c-0.019,1.088-0.038,2.176-0.059,3.265c-0.003,0.163,0.028,0.17,0.079,0.183c0.05,0.011,0.082,0.019,0.154-0.128c0.093-0.195,0.321-0.788,0.522-1.311c0.199-0.516,0.37-0.962,0.438-1.1c0.038-0.074,0.127-0.105,0.201-0.068c0.074,0.037,0.105,0.127,0.068,0.201c-0.062,0.125-0.248,0.608-0.427,1.075c-0.213,0.553-0.433,1.126-0.532,1.332C67.99,66.752,67.886,66.967,67.646,66.967z M74.094,62.901c-0.006,0-0.012,0-0.019,0c-0.237-0.006-0.584-0.015-0.948-0.023c-0.482-0.013-0.993-0.026-1.307-0.031c-0.083-0.002-0.149-0.07-0.147-0.153c0.001-0.082,0.068-0.147,0.15-0.147c0.001,0,0.002,0,0.002,0c0.315,0.006,0.827,0.02,1.31,0.031c0.363,0.01,0.71,0.019,0.947,0.023c0.143,0.022,0.155-0.03,0.166-0.073c0.018-0.073,0.009-0.124-0.094-0.173c-0.021-0.01-0.043-0.021-0.065-0.033l-0.036-0.02l-3.001-1.485c-0.043-0.021-0.073-0.062-0.082-0.109c-0.008-0.047,0.007-0.095,0.04-0.13l0.056-0.059c0.041-0.042,0.076-0.08,0.114-0.116l0.225-0.218c0.322-0.312,0.644-0.626,0.97-0.934c0.116-0.108,0.099-0.136,0.061-0.196c-0.036-0.057-0.053-0.079-0.193-0.032c-0.507,0.175-1.017,0.345-1.527,0.515l-0.045,0.016c-0.049,0.016-0.099,0.029-0.154,0.045l-0.069,0.019c-0.045,0.014-0.095,0.005-0.132-0.026c-0.038-0.028-0.059-0.073-0.058-0.121l0.066-3.434c0.002-0.149-0.033-0.159-0.075-0.171c-0.047-0.011-0.085-0.024-0.155,0.119c-0.338,0.689-0.678,1.378-1.019,2.065c-0.037,0.074-0.126,0.103-0.201,0.068c-0.074-0.037-0.104-0.127-0.067-0.201c0.341-0.688,0.68-1.376,1.018-2.065c0.119-0.241,0.287-0.337,0.503-0.275c0.302,0.082,0.297,0.371,0.295,0.466l-0.062,3.231c0.005-0.001,0.01-0.003,0.016-0.005l0.044-0.015c0.508-0.17,1.018-0.34,1.524-0.514c0.101-0.035,0.367-0.127,0.545,0.156c0.187,0.296-0.028,0.498-0.109,0.574c-0.325,0.307-0.646,0.618-0.966,0.93l-0.225,0.219c-0.007,0.007-0.014,0.014-0.02,0.02l2.914,1.445c0.221,0.104,0.314,0.293,0.258,0.517C74.489,62.799,74.339,62.901,74.094,62.901z M66.271,59.991l0.002-0.15L66.271,59.991z"/><path fill="#ee3e54" d="M66.138,55.988c-0.106-0.166-0.39-0.176-0.631-0.022s-0.35,0.416-0.244,0.582l2.653,5.167l3.579,4.575c0.106,0.166,0.39,0.176,0.631,0.022c0.241-0.154,0.35-0.416,0.244-0.582l-2.653-5.167L66.138,55.988z M69.077,61.546c-0.225,0.144-0.523,0.078-0.667-0.146c-0.144-0.225-0.078-0.523,0.147-0.667c0.225-0.144,0.523-0.078,0.667,0.147C69.367,61.104,69.301,61.402,69.077,61.546z"/><path fill="#472b29" d="M71.779,66.597c-0.046,0-0.091-0.005-0.134-0.015c-0.128-0.028-0.233-0.099-0.297-0.199l-3.569-4.561l-2.671-5.194c-0.074-0.114-0.082-0.281-0.014-0.444c0.06-0.143,0.173-0.272,0.319-0.365c0.184-0.118,0.394-0.164,0.576-0.123c0.125,0.027,0.228,0.095,0.292,0.191l3.574,4.568l2.671,5.194c0.074,0.114,0.082,0.281,0.014,0.444c-0.06,0.143-0.173,0.272-0.319,0.365C72.08,66.549,71.925,66.597,71.779,66.597z M65.856,56.032c-0.079,0-0.171,0.029-0.254,0.082c-0.085,0.055-0.153,0.13-0.185,0.206c-0.011,0.026-0.033,0.091-0.006,0.135l2.661,5.181l3.561,4.547c0.027,0.041,0.061,0.053,0.087,0.059c0.088,0.021,0.208-0.01,0.312-0.076c0.085-0.055,0.153-0.13,0.185-0.206c0.011-0.026,0.033-0.091,0.006-0.135l-2.661-5.181l-3.561-4.547c-0.003-0.004-0.007-0.009-0.01-0.014c-0.018-0.027-0.051-0.039-0.077-0.045C65.896,56.034,65.876,56.032,65.856,56.032z M68.818,61.796c-0.047,0-0.095-0.005-0.143-0.016c-0.172-0.037-0.318-0.14-0.413-0.287c-0.195-0.306-0.105-0.713,0.2-0.908c0.147-0.095,0.324-0.128,0.496-0.088c0.172,0.037,0.318,0.14,0.413,0.287c0.195,0.306,0.105,0.713-0.2,0.908C69.064,61.761,68.942,61.796,68.818,61.796z M68.816,60.831c-0.058,0-0.115,0.017-0.166,0.049c-0.069,0.044-0.117,0.112-0.135,0.192s-0.003,0.163,0.042,0.231c0.044,0.069,0.113,0.117,0.193,0.135c0.079,0.017,0.162,0.003,0.232-0.041c0.069-0.044,0.117-0.112,0.135-0.192s0.003-0.163-0.042-0.231c-0.044-0.069-0.113-0.117-0.193-0.135C68.861,60.834,68.838,60.831,68.816,60.831z"/><path fill="#472b29" d="M58.41 61.905c-.134 0-.245-.106-.25-.241-.004-.129-.004-.187-.004-.316 0-5.808 4.725-10.532 10.532-10.532 3.28 0 6.36 1.478 8.239 3.951.083.11.062.267-.048.351-.11.083-.267.062-.351-.048-1.784-2.351-4.715-3.754-7.84-3.754-5.532 0-10.032 4.5-10.032 10.032 0 .122 0 .178.004.299.005.138-.103.254-.241.259C58.415 61.905 58.413 61.905 58.41 61.905zM58.56 63.516c-.179 0-.337-.129-.369-.311l-.036-.219c-.031-.205.109-.396.314-.428.205-.028.396.109.427.314l.034.203c.035.204-.102.398-.306.434C58.603 63.514 58.582 63.516 58.56 63.516z"/><path fill="#472b29" d="M68.687 71.88c-4.911 0-9.127-3.334-10.252-8.108-.032-.135.051-.27.186-.301.138-.032.269.052.3.186 1.072 4.548 5.087 7.724 9.766 7.724 5.532 0 10.032-4.501 10.032-10.033 0-1.526-.334-2.992-.993-4.357-.06-.124-.008-.273.116-.334.125-.058.275-.008.334.117.692 1.433 1.043 2.972 1.043 4.574C79.22 67.155 74.495 71.88 68.687 71.88zM77.455 56.223c-.083 0-.166-.042-.213-.119-.082-.133-.167-.264-.254-.393-.077-.114-.047-.271.067-.348.114-.078.269-.048.347.066.091.135.18.273.266.412.072.117.036.271-.082.344C77.545 56.211 77.5 56.223 77.455 56.223zM68.856 53.403c-.138 0-.25-.112-.25-.25v-1.849c0-.138.112-.25.25-.25s.25.112.25.25v1.849C69.106 53.29 68.994 53.403 68.856 53.403z"/><path fill="#472b29" d="M68.856 71.885c-.138 0-.25-.112-.25-.25v-1.849c0-.138.112-.25.25-.25s.25.112.25.25v1.849C69.106 71.773 68.994 71.885 68.856 71.885zM78.791 61.998h-1.848c-.138 0-.25-.112-.25-.25s.112-.25.25-.25h1.848c.138 0 .25.112.25.25S78.929 61.998 78.791 61.998zM60.308 61.998H58.46c-.138 0-.25-.112-.25-.25s.112-.25.25-.25h1.848c.138 0 .25.112.25.25S60.446 61.998 60.308 61.998zM67.598 66.84c-.006 0-.013 0-.019-.002-.068-.01-.115-.074-.104-.143l.313-2.024c.011-.068.075-.122.143-.104.068.01.115.074.104.143l-.313 2.024C67.711 66.796 67.658 66.84 67.598 66.84zM74.361 62.634c-.008 0-.016-.001-.023-.002l-1.868-.354c-.068-.013-.112-.078-.1-.146.013-.067.082-.108.146-.1l1.868.354c.068.013.112.078.1.146C74.472 62.592 74.42 62.634 74.361 62.634zM65.323 63.636c-.042 0-.083-.021-.107-.06-.036-.06-.017-.136.042-.172l1.231-.751c.059-.036.135-.018.172.041.036.06.017.136-.042.172l-1.231.751C65.368 63.63 65.345 63.636 65.323 63.636zM71.355 59.801c-.043 0-.085-.022-.108-.062-.035-.06-.015-.136.045-.171l1.205-.702c.06-.033.136-.015.171.046.035.06.015.136-.045.171l-1.205.702C71.398 59.795 71.376 59.801 71.355 59.801zM64.926 60.422c-.008 0-.017-.001-.025-.003l-1.504-.308c-.068-.014-.111-.079-.098-.147.014-.067.08-.113.147-.097l1.504.308c.068.014.111.079.098.147C65.037 60.381 64.984 60.422 64.926 60.422zM69.883 57.312c-.011 0-.023-.002-.034-.005-.066-.019-.105-.088-.086-.154l.403-1.408c.019-.066.088-.104.154-.086.066.019.105.088.086.154l-.403 1.408C69.988 57.276 69.937 57.312 69.883 57.312zM75.904 55.821c-.077 0-.153-.035-.202-.103-.082-.111-.058-.268.054-.35l.839-.614c.111-.081.267-.058.349.055.082.111.058.268-.054.35l-.839.614C76.007 55.805 75.955 55.821 75.904 55.821zM61.037 68.488c-.071 0-.141-.03-.19-.088-.089-.105-.077-.263.028-.353l.622-.53c.104-.089.262-.076.353.028.089.105.077.263-.028.353l-.622.53C61.152 68.468 61.095 68.488 61.037 68.488zM75.007 69.638c-.071 0-.141-.03-.19-.088l-.442-.52c-.089-.105-.077-.263.028-.353.106-.089.263-.076.353.028l.442.52c.089.105.077.263-.028.353C75.122 69.619 75.064 69.638 75.007 69.638zM62.246 54.661c-.071 0-.141-.03-.19-.088l-.425-.499c-.089-.105-.077-.263.028-.353.104-.09.263-.076.353.028l.425.499c.089.105.077.263-.028.353C62.361 54.641 62.304 54.661 62.246 54.661z"/></svg>