<svg id="Capa_1" enable-background="new 0 0 512 512" height="512" viewBox="0 0 512 512" width="512" xmlns="http://www.w3.org/2000/svg"><path d="m301 31c0-8.291-6.709-15-15-15h-30-30c-8.291 0-15 6.709-15 15 0 32.388-16.055 62.534-42.949 80.61l33.105 30h54.844 57.656l30.293-30c-26.894-18.076-42.949-48.222-42.949-80.61z" fill="#8bdb52"/><path d="m343.949 111.61c-26.894-18.076-42.949-48.222-42.949-80.61 0-8.291-6.709-15-15-15h-30v125.61h57.656z" fill="#5dc379"/><path d="m436 136h-30.383c-13.705-18.104-35.213-30-59.617-30h-30c-24.62 0-46.318 12.085-60 30.463-13.682-18.378-35.38-30.463-60-30.463h-30c-24.404 0-45.912 11.896-59.617 30h-31.383c-41.353 0-75 33.647-75 75v180c0 41.353 33.647 75 75 75h31.383c13.705 18.104 35.213 30 59.617 30h90 90c24.404 0 45.912-11.896 59.617-30h30.383c41.353 0 76-33.647 76-75v-180c0-41.353-34.647-75-76-75z" fill="#ff9100"/><path d="m405.617 466h30.383c41.353 0 76-33.647 76-75v-180c0-41.353-34.647-75-76-75h-30.383c-13.705-18.104-35.213-30-59.617-30h-30c-24.62 0-46.318 12.085-60 30.463v359.537h90c24.404 0 45.912-11.896 59.617-30z" fill="#ff641a"/><path d="m196 256c-3.838 0-7.676-1.465-10.605-4.395l-19.395-19.394-19.395 19.395c-5.859 5.859-15.352 5.859-21.211 0s-5.859-15.352 0-21.211l30-30c5.859-5.859 15.352-5.859 21.211 0l30 30c5.859 5.859 5.859 15.352 0 21.211-2.929 2.929-6.767 4.394-10.605 4.394z" fill="#ffda2d"/><path d="m376 256c-3.838 0-7.676-1.465-10.605-4.395l-19.395-19.394-19.395 19.395c-5.859 5.859-15.352 5.859-21.211 0s-5.859-15.352 0-21.211l30-30c5.859-5.859 15.352-5.859 21.211 0l30 30c5.859 5.859 5.859 15.352 0 21.211-2.929 2.929-6.767 4.394-10.605 4.394z" fill="#fdbf00"/><path d="m406 286h-150-30c-8.291 0-15 6.709-15 15v15h-30v-15c0-8.291-6.709-15-15-15h-60c-8.291 0-15 6.709-15 15 0 57.891 47.109 105 105 105h60 30c8.291 0 15-6.709 15-15v-15h30v9.873c0 4.863 2.358 9.434 6.343 12.246 3.97 2.813 9.097 3.53 13.652 1.904 41.879-14.794 70.005-54.594 70.005-99.023 0-8.291-6.709-15-15-15z" fill="#ffda2d"/><path d="m301 391v-15h30v9.873c0 4.863 2.358 9.434 6.343 12.246 3.97 2.813 9.097 3.53 13.652 1.904 41.879-14.794 70.005-54.594 70.005-99.023 0-8.291-6.709-15-15-15h-150v120h30c8.291 0 15-6.709 15-15z" fill="#fdbf00"/></svg>