<svg id="Layer_3" enable-background="new 0 0 64 64" height="512" viewBox="0 0 64 64" width="512" xmlns="http://www.w3.org/2000/svg"><path d="m49 14c2.209 0 4 1.791 4 4v40c0 2.209-1.791 4-4 4h-34c-2.209 0-4-1.791-4-4v-40c0-2.209 1.791-4 4-4" fill="#c8af8f"/><path d="m42 38h2c2.209 0 4 1.791 4 4v12c0 2.209-1.791 4-4 4h-24c-2.209 0-4-1.791-4-4v-12c0-2.209 1.791-4 4-4h2" fill="#74a2d9"/><path d="m44 58h-24c-2.209 0-4-1.791-4-4v-8h32v8c0 2.209-1.791 4-4 4z" fill="#f8e8ce"/><path d="m15 14h-6c-2.209 0-4-1.791-4-4v-4c0-2.209 1.791-4 4-4h46c2.209 0 4 1.791 4 4v4c0 2.209-1.791 4-4 4h-6" fill="#c4c2c8"/><path d="m22 34h-5c-1.105 0-2-.895-2-2v-20h34v20c0 1.105-.895 2-2 2h-5" fill="#74a2d9"/><path d="m22 20h4v22h-4z" fill="#e8e8e8"/><path d="m38 20h4v22h-4z" fill="#e8e8e8"/><path d="m22 6h4v6h-4z" fill="#e8e8e8"/><path d="m38 6h4v6h-4z" fill="#e8e8e8"/><path d="m36 2h8v4h-8z" fill="#c8af8f"/><path d="m20 2h8v4h-8z" fill="#c8af8f"/><path d="m53 40h9v-4h-9" fill="#74a2d9"/><path d="m53 40h7v12c0 1.105-.895 2-2 2h-5" fill="#f8e8ce"/><path d="m11 40h-9v-4h9" fill="#74a2d9"/><path d="m11 40h-7v12c0 1.105.895 2 2 2h5" fill="#f8e8ce"/><g fill="#317dc9"><path d="m19 19h10v2h-10z"/><path d="m19 41h10v2h-10z"/><path d="m30 29h-2v-4h-8v4h-2v-5c0-.552.448-1 1-1h10c.552 0 1 .448 1 1z"/><path d="m35 19h10v2h-10z"/><path d="m35 41h10v2h-10z"/><path d="m46 29h-2v-4h-8v4h-2v-5c0-.552.448-1 1-1h10c.552 0 1 .448 1 1z"/><path d="m30 29h4v2h-4z"/></g><path d="m43 46h-2v7h-18v-7h-2v7h-5v1c0 .347.058.679.141 1h4.859v3h2v-3h18v3h2v-3h4.859c.083-.321.141-.653.141-1v-1h-5z" fill="#c8af8f"/><path d="m25 15h14v2h-14z" fill="#317dc9"/></svg>