<svg xmlns="http://www.w3.org/2000/svg" data-name="Layer 1" viewBox="0 0 64 64" width="100" height="100"><path fill="#72caaf" d="M31 9A24 24 0 1 0 31 57A24 24 0 1 0 31 9Z"/><path fill="#66bfa1" d="M31,57A24,24,0,0,0,55,33H7A24,24,0,0,0,31,57Z"/><path fill="#c5e4fa" d="M31 15A18 18 0 1 0 31 51A18 18 0 1 0 31 15Z"/><path fill="#cce7fc" d="M19.87 47.13A17.91 17.91 0 0 0 31 51L49 33a17.91 17.91 0 0 0-3.87-11.13zM17.8 45.2L43.2 19.8a18 18 0 0 0-3.47-2.53L15.27 41.73A18 18 0 0 0 17.8 45.2zM14 39L37 16a17.85 17.85 0 0 0-4.07-.93L13.1 34.9A17.85 17.85 0 0 0 14 39z"/><path fill="#f283a5" d="M31,4l8.62,24.91-8-4.47a1.2,1.2,0,0,0-1.16,0l-8,4.47Z"/><path fill="#8d6c9f" d="M34.74 49.59a1 1 0 0 0 .22 2l.22 0A19 19 0 0 0 49.61 36.83a1 1 0 1 0-2-.4A17 17 0 0 1 34.74 49.59zM47.56 29.13a1 1 0 0 0 1 .77l.23 0a1 1 0 0 0 .75-1.2 19 19 0 0 0-7.56-11.2 1 1 0 0 0-1.15 1.63A17 17 0 0 1 47.56 29.13zM25.38 46.91a1 1 0 0 0-1.3.55l-.75 1.85a1 1 0 1 0 1.85.75l.75-1.85A1 1 0 0 0 25.38 46.91zM19.17 43.82l-1.39 1.44a1 1 0 1 0 1.44 1.39L20.6 45.2a1 1 0 1 0-1.44-1.39zM16 38.59l-1.83.81a1 1 0 0 0 .41 1.91 1 1 0 0 0 .41-.09l1.83-.81A1 1 0 0 0 16 38.59z"/><path fill="#8d6c9f" d="M61,32H56A24.88,24.88,0,0,0,33.85,8.17l-1.9-5.5a1,1,0,0,0-1.89,0l-1.9,5.5A25.16,25.16,0,0,0,6,32H1a1,1,0,0,0,0,2H6A25,25,0,0,0,30,58v5a1,1,0,0,0,2,0V58A25,25,0,0,0,56,34h5a1,1,0,0,0,0-2ZM31,6.06l7.2,20.8-6.71-3.73a1,1,0,0,0-1,0L23.8,26.86ZM32,56V48a1,1,0,0,0-2,0v8A23,23,0,0,1,8,34h8a1,1,0,0,0,0-2H8A23.13,23.13,0,0,1,27.41,10.3l-1.52,4.4a18.94,18.94,0,0,0-13.39,14,1,1,0,0,0,.75,1.2l.23,0a1,1,0,0,0,1-.77A16.93,16.93,0,0,1,25.07,17.07l-4,11.6a1,1,0,0,0,1.43,1.2L31,25.14l8.51,4.73a1,1,0,0,0,1.43-1.2L34.59,10.3A22.88,22.88,0,0,1,54,32H46a1,1,0,0,0,0,2h8A23,23,0,0,1,32,56Z"/><path fill="#8d6c9f" d="M31 31A2 2 0 1 0 31 35A2 2 0 1 0 31 31Z"/></svg>